<mxfile host="65bd71144e">
    <diagram id="gV7_f-74uHO3Vz2EZPp4" name="Page-1">
        <mxGraphModel dx="1867" dy="724" grid="1" gridSize="10" guides="1" tooltips="1" connect="1" arrows="1" fold="1" page="1" pageScale="1" pageWidth="827" pageHeight="1169" math="0" shadow="0">
            <root>
                <mxCell id="0"/>
                <mxCell id="1" parent="0"/>
                <mxCell id="2" value="Genre: Horreur&lt;br&gt;Inspiration: Escape room&lt;br&gt;Nom: Choose wisely or It got you!&amp;nbsp;&lt;br&gt;Couleur de fond: noir&lt;br&gt;Couleur des boutons: gris pâle&lt;br&gt;Couleur contour boutons: gris foncé&lt;br&gt;Couleur&amp;nbsp;&lt;br&gt;&lt;br&gt;&lt;br&gt;,,,..se réveilla dans une chambre vide sans issus. ....trouva une note sur un des 4 murs de la pièce &quot;Choisis judicieusement ou malheur à toi, si tu veux t'en sortir, il va falloir que tu sois prêt à tout.&quot; Munis d'une lampe de poche, d'un arme à feu avec 1 seule munition, d'une trousse médicale, puis d'une petite bouteille, ...fut maintenant face à 3 porte.&lt;br&gt;&amp;nbsp; &amp;nbsp;Sur chaque porte se retrouve une idée de ce que ...... va devoir traverser/faire pour passer à la prochaine pièce et avoir une chance de s'en sortir avant qu'il ne le rattrape! Attention, ... n'a pas beaucoup de temps pour pouvoir s'enfuir.&lt;br&gt;&lt;br&gt;1er niveau: LA CHAMBRE&lt;br&gt;&amp;nbsp;Le décompte vient de commencer et le mur du fond se rapproche de plus en plus, .... doit choisir une première porte et vite!&lt;br&gt;Porte A : Boire le contenu de la petite bouteille (poison--&amp;gt; recommence début)&lt;br&gt;Porte B : Traverser un corridor rempli de serpents venimeux (meurt, tu n'as pas l'antidote dans la trousse médical)&lt;br&gt;Porte C : Il y a peut-être un ours (réussi, tu le tire avec ton arme à feu)&lt;br&gt;&lt;br&gt;2em niveau : LA CUISINE&lt;br&gt;.... à su prendre la bonne déscion, ou presque, la bonne porte l'a mené à ce qui ressemble à une cuisine. Seulement 2 portes sont à sa disposition.&lt;br&gt;Porte A : &quot;N'est pas peur, prend cette porte&quot; (meurt, dans le corridor s'y trouvais un cadavre et .... est mort par un shock nerveux)&lt;br&gt;Porte B : Traverser un corridor rempli de gaz mortels (réussi, il a retenu sa respiration)&lt;br&gt;&lt;br&gt;3em niveau : L' ESCALIER&lt;br&gt;.... à de nouveau réussi à survivre, cependant, .... n'est toujours pas sortie du deuxième étage et il croit bien que derrière 1 de ces 4 portes ce trouve un escalier.&lt;br&gt;Porte A : Fait un pacte de sang avec le diable (meurt, en se coupant il a eu le tétanos, le diable était même pas au rendez-vous bravo)&lt;br&gt;Porte B : &quot;J'espère que tu n'as pas peur du noir&quot; (meurt, sa lampe de poche n'as plus de batterie et il se foule une cheville, incapable de bouger mourra de faim)&lt;br&gt;Porte C : Couloir contaminer d'une nouvelle variante de Covid-19 (meurt, la nouvelle variante ne laisse pas de chance)&amp;nbsp;&lt;br&gt;Porte D : Corridor rempli de rayon laser (réussi, il a été bien agile!)&lt;br&gt;&lt;br&gt;4em niveau : LE GARAGE&lt;br&gt;Une chance que .... à fait de la gymnastique étant jeune, sans cela le décès aurait été imminent. Voici les dernières portes avant de pouvoir enfin sortir de cet enfer, attention de bien choisir.&lt;br&gt;Porte A : Dit au revoir à ta vie (réussi, ... à dit au revoir vie, puis à traversé sans que rien ne lui arrive)&lt;br&gt;Porte B (la porte de garage) : Rien de plus facile que sortir par une grosse porte (meurt, un clown psychopathe attendait derrière)&lt;br&gt;Porte C : Prend une cuillère de canelle, il a rien derrière la porte (meurt, .... s'est étouffer avec la canelle)&lt;br&gt;&amp;nbsp; &amp;nbsp;&lt;br&gt;&amp;nbsp;&amp;nbsp;&lt;br&gt;" style="text;html=1;align=center;verticalAlign=middle;resizable=0;points=[];autosize=1;strokeColor=none;fillColor=none;" parent="1" vertex="1">
                    <mxGeometry x="-630" y="120" width="1860" height="520" as="geometry"/>
                </mxCell>
            </root>
        </mxGraphModel>
    </diagram>
</mxfile>